<?xml version="1.0" encoding="utf-8"?>
<!-- Generator: Adobe Illustrator 16.0.0, SVG Export Plug-In . SVG Version: 6.00 Build 0)  -->
<!DOCTYPE svg PUBLIC "-//W3C//DTD SVG 1.1//EN" "http://www.w3.org/Graphics/SVG/1.1/DTD/svg11.dtd">
<svg version="1.1" id="Layer_1" xmlns="http://www.w3.org/2000/svg" xmlns:xlink="http://www.w3.org/1999/xlink" x="0px" y="0px"
	 width="24px" height="24px" viewBox="0 0 24 24" enable-background="new 0 0 24 24" xml:space="preserve">
<g>
	<path fill="#000" d="M9.437,21.342c0,3.67,4.79,3.416,4.79,0V9.857l-4.79,3.48V21.342z"/>
	<path fill="#000" d="M12,4.134c-0.404-2.227-1.25-3.951-1.25-3.951L8.267,0.622c0,0,0.35,1.255,0.397,2.865
		c0.799,0.477,1.609,1.015,2.358,1.587C11.172,4.91,11.51,4.563,12,4.134z"/>
	<path fill="#000" d="M19.374,1.904c-2.776,0-5.197,1.71-6.521,2.87c-0.492,0.429-0.829,0.776-0.978,0.939
		c1.074,0.819,2.016,1.698,2.608,2.531c0,0,3.311-4.12,7.405-4.12L19.374,1.904z"/>
	<path fill="#000" d="M10.97,6.28c-0.75-0.571-1.561-1.11-2.357-1.587C6.9,3.67,5.249,2.945,4.408,2.88L2.544,4.691
		c0,0,5.406,3.214,6.441,7.509l4.593-3.39C12.986,7.978,12.042,7.098,10.97,6.28z"/>
</g>
</svg>
